<?xml version="1.0" encoding="utf-8"?>
<!-- Generator: Adobe Illustrator 16.0.3, SVG Export Plug-In . SVG Version: 6.00 Build 0)  -->
<!DOCTYPE svg PUBLIC "-//W3C//DTD SVG 1.1//EN" "http://www.w3.org/Graphics/SVG/1.1/DTD/svg11.dtd">
<svg version="1.1" id="Ebene_1" xmlns="http://www.w3.org/2000/svg" xmlns:xlink="http://www.w3.org/1999/xlink" x="0px" y="0px"
	 width="1024px" height="1.617px" viewBox="0 15.855 1024 1.617" enable-background="new 0 15.855 1024 1.617" xml:space="preserve"
	>
<g>
	<g>
		<g>
			<g>
				<path fill="#A62727" d="M0,16.663c-0.539,0-0.234,0.001,1.251-0.002l1.055-0.007L0,16.663z"/>
				<path fill="#A62727" d="M9.993,16.66c1.746-0.007,3.761-0.029,2.629-0.044c-1.741,0.016-2.128,0.021-4.011,0.037
					c-1.487,0.002-2.594,0-2.344-0.004c-0.529,0.001-2.284,0.006-3.107,0.009c1.947-0.002,4.379-0.005,6.942-0.008
					C10.651,16.653,10.118,16.657,9.993,16.66z"/>
				<path fill="#A62727" d="M155.209,16.895l-0.936-0.021C154.53,16.88,154.851,16.887,155.209,16.895z"/>
				<path fill="#A62727" d="M245.184,16.985c-0.685,0.004-0.971,0.021-1.006,0.035C244.814,17.01,245.336,17,245.184,16.985z"/>
				<path fill="#A62727" d="M260.545,17.167c-0.329-0.004-0.606-0.007-0.906-0.011C259.985,17.172,260.333,17.18,260.545,17.167z"/>
				<path fill="#A62727" d="M155.209,16.895l2.404,0.052C157.782,16.893,156.381,16.906,155.209,16.895z"/>
				<path fill="#A62727" d="M30.018,16.549c-0.502,0.007-0.921,0.012-1.306,0.017c0.414-0.003,0.813-0.006,1.227-0.009
					C29.962,16.555,29.982,16.553,30.018,16.549z"/>
				<path fill="#A62727" d="M115.546,16.998l-0.731-0.002c-0.213,0.021-0.414,0.041-0.606,0.061L115.546,16.998z"/>
				<path fill="#A62727" d="M85.107,16.936c0.688,0.006,0.927-0.092,1.191-0.136c-0.389,0.041-0.897,0.06-1.501,0.065
					C84.786,16.884,84.876,16.907,85.107,16.936z"/>
				<path fill="#A62727" d="M36.84,16.709l-0.856,0.005C36.207,16.713,36.582,16.71,36.84,16.709z"/>
				<path fill="#A62727" d="M137.333,17.068c0.052,0.021,0.161,0.04,0.277,0.051C137.61,17.101,137.502,17.084,137.333,17.068z"/>
				<path fill="#A62727" d="M988.715,16.452c-0.023,0.003,0.012,0.005,0.003,0.008C988.895,16.457,988.949,16.454,988.715,16.452z"
					/>
				<path fill="#A62727" d="M1024,16.663h-0.489c-0.042,0-0.077,0-0.105,0.001L1024,16.663z"/>
				<path fill="#A62727" d="M288.66,17.348c-0.055-0.001-0.074-0.001-0.125-0.002C287.795,17.361,288.214,17.358,288.66,17.348z"/>
				<path fill="#A62727" d="M546.749,17.244c-2.923-0.125,4.759-0.162,0.356-0.301C547.517,16.998,543.105,17.163,546.749,17.244z"
					/>
				<path fill="#A62727" d="M30.807,16.552c0.413-0.002,0.829-0.004,1.248-0.006C31.486,16.549,31.103,16.55,30.807,16.552z"/>
				<path fill="#A62727" d="M547.105,16.943L547.105,16.943l-0.454-0.014C546.839,16.935,546.945,16.938,547.105,16.943z"/>
				<path fill="#A62727" d="M353.438,17.263c-0.133-0.025-0.392-0.043-0.661-0.063C352.799,17.216,352.948,17.234,353.438,17.263z"
					/>
				<path fill="#A62727" d="M305.179,17.063l1.194,0.019C305.899,17.075,305.516,17.069,305.179,17.063z"/>
				<path fill="#A62727" d="M378.493,17.065c0.65,0.011,0.87,0.03,1.757,0.011c-0.082-0.005-0.164-0.01-0.269-0.017
					C379.659,17.078,379.232,17.087,378.493,17.065z"/>
				<path fill="#A62727" d="M404.573,17.064c-0.14-0.008-0.321-0.02-0.481-0.028c-0.258,0.002-0.56,0.005-0.827,0.008
					L404.573,17.064z"/>
				<path fill="#A62727" d="M909.457,16.117c0.571,0.039,0.927,0.08,1.204,0.12C910.259,16.144,914.091,16.127,909.457,16.117z"/>
				<path fill="#A62727" d="M30.031,16.57c0.152-0.01,0.375-0.015,0.775-0.02c-0.299,0.002-0.587,0.004-0.868,0.006
					C29.863,16.563,29.847,16.568,30.031,16.57z"/>
				<path fill="#A62727" d="M379.553,15.956l4.144,0.021C382.539,15.971,381.033,15.963,379.553,15.956z"/>
				<path fill="#A62727" d="M722.358,16.09l0.951-0.017C722.943,16.07,722.606,16.075,722.358,16.09z"/>
				<path fill="#A62727" d="M395.994,15.956c0.739,0.05,1.522,0.079,2.333,0.098c0.171-0.012,0.367-0.021,0.481-0.036
					L395.994,15.956z"/>
				<path fill="#A62727" d="M910.67,16.239c-0.009,0-0.009-0.001-0.009-0.001S910.661,16.238,910.67,16.239z"/>
				<path fill="#A62727" d="M937.963,16.089c-3.948-0.025-1.854,0.122-2.691,0.196c-4.713,0.022-2.182-0.111-3.785-0.19
					c-2.942,0.021-5.199,0.146-7.395,0.134c-0.163-0.025-0.59-0.036-0.09-0.065c-3.11,0.11-9.234-0.035-12.859,0.119
					c-0.269-0.016-0.404-0.03-0.473-0.043c0.587,0.086,0.677,0.171,0.558,0.232c-1.771,0-3.284,0.104-3.95-0.01
					c1.085,0.005,1.175-0.04,1.683-0.073l-1.854,0.045c-1.669-0.166,2.532-0.052,2.532-0.169c-3.617,0.04-7.832,0.171-10.603,0.118
					c-0.579-0.17,6.479-0.04,2.781-0.196l4.288,0.075c-3.276-0.266,2.604,0.027-0.404-0.255c-5.644-0.073-6.313,0.053-11.94-0.014
					c-1.268,0.094,0.419,0.144-0.849,0.238c-8,0.169-6.298-0.437-12.181-0.197c-1.521,0.116-2.111,0.333-6.301,0.22l1.428-0.191
					c-5.463-0.02-3.117,0.275-8.84,0.146c1.018-0.075,4.294-0.063,3.467-0.086c-3.705-0.15-2.62,0.109-5.471,0.109l-0.59-0.17
					c-5.816,0.056-12.225,0.118-18.665,0.181c0.354-0.051,1.46-0.104-0.047-0.156c-8.125,0.085-17.343-0.021-25.18-0.122
					l-2.994,0.146c-0.696-0.001-1.292-0.066-0.538-0.095c-3.055-0.057-0.158,0.093-1.627,0.15c-1.737,0.011-2.295-0.084-1.193-0.128
					c-5.39,0.125-15.353,0.269-21.03,0.111l1.106-0.043c-4.422-0.061-4.99,0.301-9.091,0.164l0.786-0.026
					c-9.598-0.063-20.201,0.071-27.524-0.15c-1.393,0.211-9.498-0.095-10.115,0.2c-5.479-0.146-3.91-0.198-11.628-0.297
					c-2.061-0.014-3.072,0.185-5.62,0.215L731,16.057l-3.458,0.162l-1.841-0.185l-2.392,0.04c0.951,0.009,2.023,0.069,1.88,0.114
					c-1.867,0.035-4.144,0.008-5.963-0.038c-0.908-0.031-1.705-0.059-2.28-0.077c-0.575-0.027-0.929-0.053-0.95-0.072l-8.833,0.13
					c0.196-0.062,1.676-0.083,2.845-0.123c-4.715,0.157-0.855-0.161-5.178-0.018c0.579,0.035-0.313,0.092-0.41,0.123
					c-2.154-0.093-7.057-0.094-10.684-0.055l0.694-0.106c-6.551,0.015-13.811,0.032-21.164,0.049
					c2.639,0.049,2.031,0.233-0.125,0.251l-0.86-0.163c-1.394,0.102,2.251,0.063-0.606,0.186c-2.747-0.02-1.847-0.186-0.27-0.238
					l-3.339,0.058c-0.196-0.05,0.587-0.074,0.791-0.137c-1.37,0.102-5.766-0.164-7.742,0.013l-0.188-0.049
					c-7.35,0.027-10.684,0.04-16.672,0.063c-0.116,0.141-2.458,0.109-4.241,0.223c-4.399-0.045-9.283-0.154-14.587-0.144
					c-3.725,0.069-1.087,0.119-2.763,0.203c-0.274-0.128-5.568-0.116-2.822-0.208c-6.363,0.021-8.128,0.024-16.174,0.129
					c0.873,0.053,1.854,0.076,1.346,0.119c-1.46,0.021-3.322-0.055-3.112-0.115l0.386-0.013c-9.033,0.191-20.85-0.374-28.041-0.106
					l0.402-0.013l-7.459,0.139c-3.433-0.021,2.059-0.096-0.48-0.175c-8.047,0.213-12.713-0.031-19.34,0.111
					c-5.128-0.379-18.2,0.025-25.123-0.216l0.398,0.089c-1.789,0.088-2.164-0.051-3.482-0.07c0.188,0.068,1.941,0.08,0.83,0.128
					c-15.157,0.106-31.285-0.13-46.826-0.21c-5.684-0.023-3.225,0.46-10.391,0.248l2.033-0.165
					c-11.47,0.198-23.453-0.007-34.681,0.161c0.669-0.038,0.688-0.087,1.784-0.087c-1.187-0.061-3.378-0.063-5.279-0.036
					c-0.95,0.021-1.827,0.041-2.471,0.055c-0.643,0.022-1.05,0.048-1.062,0.072c-1.749-0.012-0.404-0.088-1.481-0.139
					c-2.379-0.07-5.971,0.153-7.236,0.034c-0.215-0.02,0.669-0.039,1.104-0.048c-1.55,0.059-7.222-0.015-5.738,0.124
					c-4.215-0.065-8.063,0.063-11.423-0.021c-2.192,0.154-7.214-0.075-7.91,0.145c0.302-0.226-7.389-0.183-10.053-0.076
					c0.892-0.067-2.317-0.07-1.273-0.166c-3.04,0.003-5.827,0.045-5.297,0.162c-5.602-0.271-11.26,0.218-14.415-0.129
					c-9.035,0.091-17.394,0.175-25.518,0.257c0.293-0.226,8.981-0.021,8.633-0.259c-7.709,0.093-12.155,0.287-19.799,0.232
					c-1.979-0.031,1.123-0.099,1.792-0.138c-7.701,0.094-14.891-0.021-21.743,0.104c0.01-0.012,0.199-0.021,0.474-0.032
					c0.275-0.008,0.634-0.019,0.983-0.029c-1.351,0.007-3.141-0.033-2.988,0.069l1.316-0.028c2.157,0.149-5.362,0.312-5.604,0.39
					c2.292-0.293-6.769-0.074-3.127-0.445c-0.889,0.019-2.004,0.068-1.8,0.136c-1.319-0.02-1.738-0.06-0.4-0.138
					c-4.837,0.056-3.119,0.165-7.502,0.162c0.016-0.049,0.9-0.069,1.354-0.127c-2.219,0.097-4.449,0.192-8.152,0.15
					c0.223-0.029-0.207-0.068,0.897-0.067c-6.36,0.015-10.841,0.258-17.819,0.164c2.059-0.216-2.374-0.071-2.744-0.258l-3.752,0.057
					l1.506,0.09c-3.288-0.003-6.191,0.133-9.017,0.072l2.442-0.077l-6.159,0.036l3.486,0.07c-3.326,0.097,0.356,0.236-4.019,0.185
					c0.889-0.02-3.288-0.002-5.001-0.112c0,0,0.01,0,0.011,0c-1.626,0.061-3.299,0.122-5.729,0.076
					c-0.631-0.06,0.508-0.207,0.098-0.246c-1.604,0.156-7.698,0.043-9.729,0.209c0.677-0.039,0.712-0.137,0.49-0.157l-1.346,0.126
					c-1.523-0.041-1.746-0.06-1.499-0.138c-4.579-0.023,1.455,0.237-3.981,0.135c0.427-0.01,0.223-0.028,1.112-0.048
					c-5.46-0.053-10.548,0.08-15.565,0.019c-1.479-0.188,4.383-0.047,2.689-0.205c-7.233,0.033-14.978,0.225-21.977,0.181
					l1.305,0.021c-0.971,0.266-5.213-0.131-8.753-0.006c0.868-0.02,1.137-0.146,0.903-0.117c-4.794-0.044-9.8,0.064-17.063,0.147
					l0.9-0.068c-2.825-0.061-7.44-0.034-10.491-0.065c-0.906,0.067-2.651,0.057-1.591,0.156c-9.409-0.398-17.947,0.198-26.295-0.1
					c0.998-0.003,2.379-0.063,1.585-0.061l-7.111,0.075c0.56,0.104,0.933,0.062,2.425,0.143c-0.9,0.065-2.907,0.114-4.669,0.114
					c3.198-0.07-0.027-0.168-1.408-0.222c0.231,0.031-0.242,0.066-0.125,0.099c-3.715-0.175-0.623,0.204-5.694,0.086l0.269-0.052
					c-1.898,0.027-3.646,0.095-5.694,0.081c-0.849-0.107,2.021-0.053,2.151-0.143c-2.875,0.013-5.672,0.206-8.275,0.104
					c1.223-0.019,2.976-0.044,4.199-0.063c-2.833-0.12-3.163-0.086-5.267-0.101H93.2l-4.868-0.041l1.24,0.027
					c-3.598,0.257-7.326,0.062-12.171,0.217c4.709-0.145,0.778-0.082,1.139-0.181c-1.237-0.023-3.119-0.048-2.583-0.077
					c-2.29,0.082-3.823-0.044-7.057,0.071c-0.144-0.028-2.45,0.004-1.933-0.065c-2.978,0.031,0.704,0.044,0.454,0.08
					c-4.59,0.097-10.79-0.068-17.393,0.059c-5.688,0.067-6.752,0.081-12.03,0.144c-1.784-0.024,1.46-0.061,1.46-0.061
					c-2.877-0.021-5.042-0.01-7.752,0.009c0.549-0.013-0.017-0.021-0.843-0.035c-2.175,0.009-1.455,0.049-4.326,0.036
					c0.499-0.012,1.138-0.028,2.175-0.053c-2.563,0.02-5.097,0.039-7.75,0.059c-0.705-0.014,1.602-0.027,2.537-0.043
					c-2.979,0.021-7.692,0.051-8.65,0.059l1.915,0.004c-1.088,0.002-0.56-0.017,0.242-0.021c2.556-0.023,3.687-0.001,3.831,0.009
					l-1.89,0.009c1.941,0.051,7.589-0.014,11.396-0.021l-1.585,0.055l3.902-0.048c0.829,0.015,1.397,0.05-0.481,0.059
					c2.731,0.009,2.406,0.008,4.759,0.016c0.258,0.006,0.141,0.009-0.098,0.011l2.665-0.018c-0.522,0.015,0.443,0.051-1.194,0.038
					c4.783,0.054,7.714-0.048,9.515,0.016l-0.4,0.005c6.638-0.021,0.642-0.061,5.621-0.141l3.35,0.177l0.653-0.073
					c0.686,0.003,2.04,0.011,1.79,0.04c2.548-0.05-0.435-0.032,1.044-0.082c3.296,0.075,9.088-0.034,9.83,0.105
					c1.183-0.067-3.151-0.054,0.367-0.099c1.003,0.155,4.068-0.025,7.078,0.049c-0.924,0.085-3.777,0.034-0.764,0.115
					c1.816-0.144,5.863,0.044,8.403,0.022c0.06-0.063,1.44-0.074,3.339-0.075c1.898-0.002,4.313-0.006,6.445-0.009
					c-0.269,0.046,8.019,0.089,11.984,0.154l-0.117,0.025c0.767-0.153,4.857-0.12,7.834-0.149c-0.117,0.1-0.653,0.138-2.265,0.178
					l2.798,0.006c0.661-0.052,1.534-0.079,3.35-0.095l-0.704,0.126c3.725,0.005,7.502-0.138,12.296-0.038
					c0.269-0.131-3.813-0.359,1.256-0.447c0.188,0.07,0.375,0.191-0.952,0.22c0.435-0.01,1.55-0.059,2.425-0.027l-2.026,0.117
					c2.184,0.054,1.142-0.099,2.888-0.086c-0.036,0.101,1.292,0.071,1.042,0.151c-0.446,0.01-1.523-0.042-2.192-0.003
					c1.969,0.021,4.348,0.079,5.134,0.155c-0.171-0.058,0-0.136,1.441-0.15c3.725-0.01,1.275,0.12,3.448,0.168
					c0.903-0.069,3.28,0,3.342-0.147c1.09,0,1.292,0.068,1.713,0.108c1.928-0.064,9.006-0.019,6.833-0.176l-0.495-0.01
					c0.092-0.002,0.201-0.004,0.315-0.006c-0.017,0,0,0-0.017,0h0.017c6.319-0.147,13.128,0.083,19.399,0.021l-0.011,0.049
					c3.744-0.057,8.332-0.033,11.005-0.14c1.106,0,2.613,0.09,2.14,0.149c2.86-0.037,3.181-0.094,7.314-0.012
					c-2.877,0.086,0.993,0.076-2.948,0.063c3.717,0.043,4.561,0.122,8.552-0.013c-1.359,0.126,2.798,0.158,4.565,0.122l-2.605-0.091
					c1.988,0.001,3.726,0.002,5.49,0.003l-0.955,0.167c7.609,0.202,13.722-0.345,19.514-0.006c2.012-0.115-4.133-0.082-2.333-0.218
					c3.5,0.022,7.146,0.261,8.242,0.262c4.794,0.093,4.473-0.242,9.49-0.18c-0.642-0.059-1.248-0.218,2.502-0.272
					c3.502,0.021,4.304,0.248,2.094,0.296c-0.84,0.005-1.246-0.015-1.21-0.034c-1.131,0.021-2.616,0.047-1.229,0.11l0.454-0.059
					c1.738,0.062,6.556,0.054,5.425,0.151c2.646-0.058,1.131-0.098-0.83-0.128c4.492,0.086,7.019,0.002,11.641,0.06
					c-0.734-0.033-1.411-0.102-0.68-0.102c6.782,0.072,2.986-0.113,7.581-0.14c2.611,0.09-0.935,0.216,3.69,0.141
					c2.825,0.062,0.598,0.157-0.525,0.206c4.215-0.115,7.875,0.074,10.281,0.096l-2.219,0.048c1.327-0.029,2.415-0.028,3.521-0.027
					l-1.267-0.118c1.302,0.021,2.406,0.021,2.382,0.069c1.343-0.078-1.028-0.197,1.637-0.304c1.737,0.061,5.292-0.064,5.893,0.093
					c-5.466-0.053,0.604,0.158-4.022,0.185c0.892-0.02,1.979-0.019,3.288,0.003c0.196,0.018-0.185,0.032-0.541,0.042
					c5.229,0.141,2.404-0.179,7.823-0.175c-0.688,0.09,1.256,0.168,2.14,0.149c-2.184-0.002-1.044-0.148,0.96-0.216
					c3.475,0.068,3.777-0.051,5.596-0.043l-2.078-0.033c0.704-0.089,2.442-0.077,4.865-0.105c0.207,0.069-2.2,0.048-1.335,0.078
					c2.689-0.155,6.077,0.161,9.827,0.057c1.738,0.06,0.168,0.167,1.694,0.208c4.204-0.115,4.552,0.122,8.971,0.025
					c-1.273-0.119-1.496-0.09,1.615-0.206l-7.263,0.084l4.661-0.174c-2.191-0.001-4.625,0.075-5.939,0.056
					c2.222-0.098,1.994-0.067,0.944-0.167c3,0.179,5.947-0.104,9.414,0.017l-0.106,0.295c5.213,0.132,9.262-0.151,16.03-0.077
					l-2.175-0.051c0.908-0.118,4.18-0.017,6.371-0.064c-0.204,0.1,1.167,0.135,2.102,0.196c-0.114-0.073,4.955,0.007,5.569-0.189
					l3.021,0.13c5.465,0.053,6.238-0.281,11.491-0.248c-1.583,0.106,0.805,0.177-2.714,0.254c1.754,0.001,3.331,0.019,3.358-0.049
					c1.025,0.062,4.865-0.134,6.478-0.039c0.739-0.043,0.981-0.147,2.95-0.14c0.215,0.021-0.008,0.05-0.008,0.05
					c0.008-0.05,3.084-0.066,1.362-0.177c5.403,0.309,15.103-0.021,19.807,0.242c3.829-0.022,8.441-0.051,11.916-0.072
					c-0.223,0.029-0.011,0.05-0.669,0.039c4.794,0.093,2.947-0.282,8.402-0.181c2.787,0.16-2.896,0.086-1.158,0.146
					c0.756,0.324,6.583-0.045,10.254,0.146l-0.889,0.019c2.807,0.11,6.847-0.122,11.432-0.1c0,0-0.223,0.028-0.027,0.049
					c3.136-0.166,9.071-0.22,13.482-0.267c-1.373,0.127-2.004,0.066-1.167,0.197c1.977-0.02-0.579-0.208,3.366-0.244
					c1.284,0.068,4.131,0.13,4.509,0.268l-3.717,0.008c1.905,0.18,4.817-0.006,6.778,0.025l-0.25,0.078
					c5.705-0.025,5.784-0.223,11.916-0.208l-0.637-0.06c3.354-0.194,2.813,0.109,6.154-0.034l1.012,0.196
					c2.211-0.048,7.744-0.19,11.709-0.228c-2.246,0.146-6.885,0.221-9.757,0.308c2.191,0.001,7.448-0.015,8.59-0.111
					c-0.884,0.019-1.996,0.066-2.869,0.036c2.689-0.154,6.228-0.23,10.594-0.228c-0.774,0.382,11.383,0.096,14.551,0.394
					c7.726-0.142,15.326,0.061,24.327,0.038c-3.193-0.298,2.626-0.008,2.073-0.313c2.098-0.02,2.896-0.015,3.084,0.005l6.353,0.183
					c1.507,0.089-1.993,0.067-1.8,0.137c4.59,0.022,1.925,0.129,4.963,0.211c-0.623-0.109,1.596-0.157,4.212-0.115l-3.686-0.142
					c6.415-0.162,5.545,0.257,12.012,0.096l-2.046,0.096c3.317-0.057,12.239,0.002,15.492-0.244
					c0.587,0.035,1.362,0.119-0.099,0.142c7.93,0.036,17.647-0.262,23.813-0.11l-0.601,0.075c1.479-0.021,2.575-0.141,4.427-0.065
					c-0.095,0.031-0.596,0.075,0.09,0.079c0.783-0.026,3.931-0.131,5.891-0.087l-1.675,0.084c7.732,0.098,11.869-0.205,18.354-0.256
					c-0.016,0.22,6.07,0.292,9.107,0.328l-0.106,0.03c9.007,0.027,15.299-0.182,23.639-0.269c5.179,0.239,17.536,0.1,25.857,0.234
					c-1.272-0.04,0.207-0.171,1.686-0.193c1.953,0.044,5.398-0.153,5.089,0.049L697.37,17.2c1.472,0.198,5.485,0.146,8.617,0.151
					l0.518-0.265c8.195,0.385,21.474-0.141,25.946,0.203c1.979-0.041,4.425-0.091,6.388-0.131l-0.104,0.142
					c5.479,0.036,8.215,0.055,14.987,0.021l-1.382,0.102c3.821,0.01,4.824-0.407,8.35-0.417l1.061,0.211
					c6.665-0.003,13.411,0.184,19.997-0.009c-0.108,0.031-0.305,0.092-1.384,0.102c3.138,0.005,12.136,0.143,10.996-0.147
					c0.039,0.094,1.759,0.1,3.918,0.07c2.158-0.044,4.759-0.099,6.56-0.135l-0.56,0.14c3.037-0.178,3.135-0.227,7.377-0.276
					c1.006,0.02,0.881,0.112-0.454,0.076c3.35,0.073,2.609-0.132,6.673-0.058l-1.515,0.089c3.447,0.011,3.174-0.037,5.07-0.141
					c2.168-0.057,6.54,0.035,7.049,0.161c0.466-0.076,2.353-0.18,4.384-0.144c0.274,0.048-0.466,0.077-0.837,0.092
					c5.765,0.095,8.57-0.162,12.534-0.024c0.082,0.046,0.341,0.068,0.669,0.083c-4.558-0.013-7.575-0.021-7.921-0.021
					c0,0.128,3.698,0.151,0.756,0.329c2.971-0.097,8.047-0.307,11.652-0.247c0.174,0.013,0.345,0.025,0.477,0.044l-0.372,0.015
					c0.831,0.014,1.576,0.001,2.277-0.021c1.15,0.015,1.882,0.024,2.985,0.039c0.428,0.105,4.239,0.058,6.086,0.063
					c-0.152-0.14,2.263-0.117,0-0.233c0.294,0.01-0.348,0.017-1.574,0.022c-0.276,0.005-0.604,0.012-0.786,0.015
					c0.036-0.003,0.079-0.009,0.125-0.013c-1.21,0.002-2.79,0.006-4.584,0.01c1.457-0.071,2.979-0.132,5.021-0.054
					c0.948-0.083,1.99-0.175,2.575-0.227c2.522,0.196,7.388,0.302,8.064,0.423c5.631-0.081,13.268-0.048,16.809-0.312
					c1.602-0.033,1.841,0.078,2.438,0.121c-0.924,0.026-2.021,0.021-2.522,0.06c3.2-0.063,9.484-0.023,10.248-0.214
					c4.035,0.08-2.268,0.177,3.277,0.137l-0.747,0.053c10.907,0.235,17.732-0.471,29.824-0.16c-0.837-0.017-1.256-0.023-1.427-0.049
					c13.786,0.085,28.41-0.146,42.015-0.028c3.867,0.014,4.285-0.044,6.646-0.089l0.838,0.064l4.034-0.083
					c5.723-0.048,9.909,0.105,17.153,0.006l-0.933-0.023c2.6-0.001,8.239-0.028,7.804-0.005c0.268-0.004,0.854-0.021,1.871-0.014
					l0.079,0.015l6.391-0.034c4.954-0.004-0.774,0.042,6.455,0.011c2.584-0.012,5.668-0.027,6.645-0.032
					c-1.077,0.001-2.678,0.002-2.854,0.002l2.458-0.002c0.445-0.005,2.336,0.014-3.698-0.023l-4.203-0.013l-1.354-0.016l3.538,0.018
					c-2.013-0.008-3.277-0.014-4.704-0.02c-0.354-0.005-0.937-0.012-1.763-0.023l-4.128,0.012c-0.5-0.019,1.853-0.019-0.919-0.042
					c-1.934,0.008,1.854,0.042-1.347,0.041c-2.013-0.026-1.425-0.042-3.784-0.034c-0.332-0.015,0.169-0.021,1.104-0.021
					c-2.102,0.004-5.561-0.021-6.646,0.005c-2.097-0.045-7.095-0.018-6.888-0.086c-0.668,0.004-3.705,0.024-5.632,0.037
					c3.527-0.082-7.225-0.036-6.292-0.147c-2.61,0.086-9.428-0.006-14.051,0.041c0.259-0.01,0.767-0.027,1.175-0.02
					c-2.604-0.021-3.357-0.063-5.03-0.098c-0.335,0.106-4.387,0.117-6.569,0.186c-3.189-0.127,1.937-0.134,0.936-0.247
					c0.161,0.096-5.542,0.071-4.457,0.161c-2.438-0.084-2.102-0.044-3.357-0.157c-0.428,0.161-2.271,0.017-4.293,0.112
					c-3.529-0.098-0.908-0.167-4.787-0.13C934.515,16.133,937.963,16.089,937.963,16.089z M845.747,16.288v-0.003
					c0.795-0.003,1.472-0.006,1.904-0.008C847.254,16.279,846.705,16.283,845.747,16.288z M837.998,16.29
					c0.943,0.002,2.118,0.003,3.36,0.006c0.271,0.049-0.021,0.099-0.803,0.097C840.98,16.359,839.153,16.331,837.998,16.29z
					 M854.39,17.264c-1.227,0.02-1.638-0.009-1.806-0.037c0.579-0.004,1.256-0.011,2.146-0.018c0.034-0.004,0.106-0.013,0.144-0.017
					C854.757,17.221,854.623,17.246,854.39,17.264z"/>
				<path fill="#A62727" d="M856.595,17.08c0.177-0.004,0.274-0.006,0.506-0.01c-0.251-0.011-0.489-0.021-0.73-0.032
					c-0.149,0.016-0.302,0.03-0.437,0.044C856.157,17.082,856.388,17.081,856.595,17.08z"/>
				<path fill="#A62727" d="M154.111,16.872l0.163,0.003c-0.135-0.008-0.259-0.015-0.342-0.02
					C154.039,16.865,154.041,16.865,154.111,16.872z"/>
				<polygon fill="#A62727" points="730.989,16.022 731,16.057 731.678,16.026 				"/>
				<path fill="#A62727" d="M111.43,16.42c-0.082-0.011-0.242-0.021-0.561-0.03C110.894,16.398,111.136,16.409,111.43,16.42z"/>
				<path fill="#A62727" d="M92.993,16.432l-2.608-0.031C91.514,16.415,92.335,16.424,92.993,16.432z"/>
				<path fill="#A62727" d="M78.817,16.418c-0.179,0.018-0.231,0.029-0.277,0.04c0.011,0,0.019,0,0.027,0L78.817,16.418z"/>
				<path fill="#A62727" d="M304.203,16.123c0.19-0.002,0.378-0.004,0.547-0.006C306.033,16.089,305.16,16.1,304.203,16.123z"/>
				<path fill="#A62727" d="M237.13,16.451c0.713-0.021,1.415-0.043,2.156-0.065C238.092,16.374,237.165,16.371,237.13,16.451z"/>
				<path fill="#A62727" d="M379.099,15.954c-0.008,0.001,0,0.001-0.008,0.002c0.161,0,0.302,0,0.462,0L379.099,15.954z"/>
				<path fill="#A62727" d="M242.405,16.387c-1.194-0.028-2.192-0.022-3.119-0.002C240.265,16.394,241.418,16.409,242.405,16.387z"
					/>
				<path fill="#A62727" d="M17.379,16.593l-0.683,0.003c0.011,0.001-0.03,0.002-0.082,0.004L17.379,16.593z"/>
				<path fill="#A62727" d="M16.615,16.599l-0.759,0.005C16.204,16.602,16.501,16.6,16.615,16.599z"/>
				<path fill="#A62727" d="M14.26,16.614l1.596-0.01C15.305,16.608,14.629,16.612,14.26,16.614z"/>
				<path fill="#A62727" d="M36.145,16.544l0.215-0.017C36.242,16.531,36.166,16.537,36.145,16.544z"/>
				<path fill="#A62727" d="M41.847,16.522c-1.359-0.002-3.413-0.005-5.311-0.008l-0.176,0.014
					C37.263,16.526,40.545,16.523,41.847,16.522z"/>
				<path fill="#A62727" d="M65.648,16.796l-4.778-0.029c0.834,0.028,1.933,0.069-0.239,0.07
					C66.654,16.938,59.389,16.772,65.648,16.796z"/>
				<path fill="#A62727" d="M80.465,16.876c-2.567,0.011,0.03,0.053-0.106,0.072C81.988,16.92,82.382,16.912,80.465,16.876z"/>
				<path fill="#A62727" d="M187.542,16.984l-0.258,0.128C189.263,17.093,187.302,17.062,187.542,16.984z"/>
				<polygon fill="#A62727" points="208.009,16.323 206.084,16.243 205.167,16.36 				"/>
				<polygon fill="#A62727" points="220.102,17.234 219.237,17.252 222.538,17.206 				"/>
				<path fill="#A62727" d="M399.934,17.188l-0.598-0.158C397.998,17.059,397.718,17.236,399.934,17.188z"/>
				<path fill="#A62727" d="M477.569,17.028c0.846,0.079,3.028,0.129,4.375,0.052C480.198,17.069,478.458,17.008,477.569,17.028z"/>
				<polygon fill="#A62727" points="710.399,17.285 708.839,17.337 711.781,17.293 				"/>
			</g>
		</g>
	</g>
</g>
</svg>
