<?xml version="1.0" encoding="utf-8"?>
<!-- Generator: Adobe Illustrator 16.0.0, SVG Export Plug-In . SVG Version: 6.00 Build 0)  -->
<!DOCTYPE svg PUBLIC "-//W3C//DTD SVG 1.1//EN" "http://www.w3.org/Graphics/SVG/1.1/DTD/svg11.dtd">
<svg version="1.1" id="Layer_1" xmlns="http://www.w3.org/2000/svg" xmlns:xlink="http://www.w3.org/1999/xlink" x="0px" y="0px"
	 width="50px" height="50px" viewBox="0 0 50 50" enable-background="new 0 0 50 50" xml:space="preserve">
<path fill="#515151" d="M25,0.695C11.577,0.695,0.695,11.577,0.695,25S11.577,49.305,25,49.305
	c13.424,0,24.305-10.882,24.305-24.305S38.424,0.695,25,0.695z M25,47.072C12.811,47.072,2.929,37.19,2.929,25
	S12.811,2.928,25,2.928S47.072,12.81,47.072,25S37.189,47.072,25,47.072z"/>
<path fill="#9B1C1F" d="M25,0.695C11.577,0.695,0.695,11.577,0.695,25S11.577,49.305,25,49.305
	c13.424,0,24.305-10.882,24.305-24.305S38.424,0.695,25,0.695z M25,47.072C12.811,47.072,2.929,37.19,2.929,25
	S12.811,2.928,25,2.928S47.072,12.81,47.072,25S37.189,47.072,25,47.072z"/>
<g>
	<polygon fill="#BCBCBC" points="25,16.62 12.428,11.908 12.428,30.37 25,34.828 37.572,30.37 37.572,11.908 	"/>
	<polygon fill="#515151" points="25,18.228 11.286,13.088 11.286,33.229 25,38.091 38.715,33.229 38.715,13.088 	"/>
	<polygon fill="#BCBCBC" points="28.231,20.427 28.231,22.141 36.767,18.942 36.767,17.228 	"/>
	<polygon fill="#BCBCBC" points="28.231,23.876 28.231,25.59 36.767,22.391 36.767,20.676 	"/>
</g>
<g>
	<polygon fill="#C19398" points="25,16.62 12.428,11.908 12.428,30.37 25,34.828 37.572,30.37 37.572,11.908 	"/>
	<polygon fill="#9B1C1F" points="25,18.228 11.286,13.088 11.286,33.229 25,38.091 38.715,33.229 38.715,13.088 	"/>
	<polygon fill="#C19398" points="28.231,20.427 28.231,22.141 36.767,18.942 36.767,17.228 	"/>
	<polygon fill="#C19398" points="28.231,23.876 28.231,25.59 36.767,22.391 36.767,20.676 	"/>
</g>
</svg>
