<?xml version="1.0" encoding="utf-8"?>
<!-- Generator: Adobe Illustrator 16.0.0, SVG Export Plug-In . SVG Version: 6.00 Build 0)  -->
<!DOCTYPE svg PUBLIC "-//W3C//DTD SVG 1.1//EN" "http://www.w3.org/Graphics/SVG/1.1/DTD/svg11.dtd">
<svg version="1.1" id="Layer_1" xmlns="http://www.w3.org/2000/svg" xmlns:xlink="http://www.w3.org/1999/xlink" x="0px" y="0px"
	 width="50px" height="50px" viewBox="0 0 50 50" enable-background="new 0 0 50 50" xml:space="preserve">
<path fill="#515151" d="M25,0.695C11.577,0.695,0.695,11.577,0.695,25S11.577,49.305,25,49.305
	c13.424,0,24.305-10.882,24.305-24.305S38.424,0.695,25,0.695z M25,47.072C12.811,47.072,2.929,37.19,2.929,25
	S12.811,2.928,25,2.928S47.072,12.81,47.072,25S37.189,47.072,25,47.072z"/>
<path fill="#9B1C1F" d="M25,0.695C11.577,0.695,0.695,11.577,0.695,25S11.577,49.305,25,49.305
	c13.424,0,24.305-10.882,24.305-24.305S38.424,0.695,25,0.695z M25,47.072C12.811,47.072,2.929,37.19,2.929,25
	S12.811,2.928,25,2.928S47.072,12.81,47.072,25S37.189,47.072,25,47.072z"/>
<g>
	<g>
		<g>
			<path fill="#515151" d="M25,0.691C11.575,0.691,0.691,11.575,0.691,25S11.575,49.308,25,49.308
				c13.426,0,24.308-10.883,24.308-24.308S38.426,0.691,25,0.691z M25,47.076C12.808,47.076,2.925,37.191,2.925,25
				C2.925,12.808,12.808,2.925,25,2.925c12.191,0,22.075,9.883,22.075,22.075C47.075,37.191,37.191,47.076,25,47.076z"/>
		</g>
		<path fill="#515151" d="M19.342,12.721c1.445-0.931,3.221-1.396,5.327-1.396c2.767,0,5.066,0.661,6.898,1.983
			c1.83,1.322,2.746,3.282,2.746,5.878c0,1.592-0.396,2.933-1.191,4.023c-0.464,0.662-1.355,1.506-2.674,2.535l-1.301,1.01
			c-0.709,0.551-1.179,1.194-1.41,1.93c-0.147,0.466-0.227,1.187-0.239,2.167h-4.978c0.073-2.069,0.269-3.499,0.586-4.289
			c0.318-0.79,1.136-1.699,2.454-2.728l1.337-1.047c0.439-0.331,0.794-0.692,1.063-1.084c0.486-0.673,0.731-1.414,0.731-2.222
			c0-0.931-0.272-1.779-0.816-2.544c-0.543-0.766-1.536-1.148-2.977-1.148c-1.417,0-2.422,0.471-3.015,1.414
			c-0.593,0.943-0.889,1.923-0.889,2.94h-5.308C15.834,16.651,17.052,14.178,19.342,12.721z M22.392,33.367h5.492v5.309h-5.492
			V33.367z"/>
	</g>
	<g>
		<g>
			<path fill="#9B1C1F" d="M25,0.691C11.575,0.691,0.691,11.575,0.691,25S11.575,49.308,25,49.308
				c13.426,0,24.308-10.883,24.308-24.308S38.426,0.691,25,0.691z M25,47.076C12.808,47.076,2.925,37.191,2.925,25
				C2.925,12.808,12.808,2.925,25,2.925c12.191,0,22.075,9.883,22.075,22.075C47.075,37.191,37.191,47.076,25,47.076z"/>
		</g>
		<path fill="#9B1C1F" d="M19.342,12.721c1.445-0.931,3.221-1.396,5.327-1.396c2.767,0,5.066,0.661,6.898,1.983
			c1.83,1.322,2.746,3.282,2.746,5.878c0,1.592-0.396,2.933-1.191,4.023c-0.464,0.662-1.355,1.506-2.674,2.535l-1.301,1.01
			c-0.709,0.551-1.179,1.194-1.41,1.93c-0.147,0.466-0.227,1.187-0.239,2.167h-4.978c0.073-2.069,0.269-3.499,0.586-4.289
			c0.318-0.79,1.136-1.699,2.454-2.728l1.337-1.047c0.439-0.331,0.794-0.692,1.063-1.084c0.486-0.673,0.731-1.414,0.731-2.222
			c0-0.931-0.272-1.779-0.816-2.544c-0.543-0.766-1.536-1.148-2.977-1.148c-1.417,0-2.422,0.471-3.015,1.414
			c-0.593,0.943-0.889,1.923-0.889,2.94h-5.308C15.834,16.651,17.052,14.178,19.342,12.721z M22.392,33.367h5.492v5.309h-5.492
			V33.367z"/>
	</g>
</g>
</svg>
