<?xml version="1.0" encoding="utf-8"?>
<!-- Generator: Adobe Illustrator 16.0.0, SVG Export Plug-In . SVG Version: 6.00 Build 0)  -->
<!DOCTYPE svg PUBLIC "-//W3C//DTD SVG 1.1//EN" "http://www.w3.org/Graphics/SVG/1.1/DTD/svg11.dtd">
<svg version="1.1" id="Layer_1" xmlns="http://www.w3.org/2000/svg" xmlns:xlink="http://www.w3.org/1999/xlink" x="0px" y="0px"
	 width="50px" height="50px" viewBox="0 0 50 50" enable-background="new 0 0 50 50" xml:space="preserve">
<g>
	<path fill="#515151" d="M25,0.695C11.577,0.695,0.695,11.577,0.695,25S11.577,49.305,25,49.305
		c13.424,0,24.305-10.882,24.305-24.305S38.424,0.695,25,0.695z M25,47.072C12.811,47.072,2.929,37.19,2.929,25
		S12.811,2.928,25,2.928S47.072,12.81,47.072,25S37.189,47.072,25,47.072z"/>
	<path fill="#515151" d="M36.6,39.707V10.293H20.867h-1.78l-5.687,5.26v1.779v22.375H36.6z"/>
	<g>
		<path fill="#BCBCBC" d="M27.492,27.749c0.17,0.324,0.256,0.684,0.256,1.079c0,0.67-0.234,1.247-0.705,1.732
			s-1.155,0.729-2.056,0.729c-1.077,0-1.841-0.36-2.291-1.08c-0.242-0.388-0.384-0.871-0.424-1.452h1.694
			c0.031,0.271,0.097,0.486,0.197,0.644c0.18,0.28,0.476,0.421,0.887,0.421c0.276,0,0.502-0.069,0.677-0.206
			c0.175-0.139,0.262-0.34,0.262-0.606c0-0.307-0.153-0.536-0.461-0.689c-0.308-0.152-0.872-0.421-1.693-0.807
			c-1.432-0.69-2.147-1.491-2.147-2.402c0-0.569,0.166-1.04,0.498-1.412c0.184-0.207,0.453-0.401,0.808-0.586
			c-0.251-0.216-0.436-0.417-0.552-0.605c-0.207-0.328-0.31-0.714-0.311-1.158c0.001-0.857,0.292-1.511,0.875-1.962
			c0.583-0.45,1.237-0.677,1.961-0.677c0.787,0,1.455,0.2,2.006,0.6c0.549,0.399,0.861,1.062,0.938,1.986h-1.777
			c-0.061-0.332-0.148-0.572-0.263-0.721c-0.188-0.251-0.497-0.377-0.927-0.377c-0.263,0-0.488,0.083-0.678,0.249
			c-0.188,0.166-0.282,0.382-0.282,0.646c0,0.237,0.099,0.446,0.297,0.626c0.197,0.18,0.758,0.507,1.68,0.982
			c0.806,0.403,1.354,0.735,1.647,0.996c0.471,0.417,0.705,0.923,0.705,1.52c0,0.562-0.16,1.025-0.484,1.394
			c-0.188,0.22-0.455,0.419-0.801,0.599C27.172,27.309,27.326,27.488,27.492,27.749z M23.676,25.218
			c0.113,0.095,0.27,0.195,0.469,0.303l1.947,1.022c0.232-0.098,0.398-0.244,0.498-0.437c0.062-0.126,0.094-0.26,0.094-0.404
			c0-0.219-0.092-0.414-0.279-0.585c-0.109-0.103-0.299-0.229-0.573-0.377l-1.848-1.002c-0.148,0.062-0.274,0.154-0.377,0.275
			c-0.162,0.175-0.242,0.384-0.242,0.626C23.364,24.841,23.468,25.034,23.676,25.218z"/>
	</g>
	<polygon fill="#BCBCBC" points="19.087,15.553 19.087,10.293 13.4,15.553 	"/>
	<path fill="#9B1C1F" d="M25,0.695C11.577,0.695,0.695,11.577,0.695,25S11.577,49.305,25,49.305
		c13.424,0,24.305-10.882,24.305-24.305S38.424,0.695,25,0.695z M25,47.072C12.811,47.072,2.929,37.19,2.929,25
		S12.811,2.928,25,2.928S47.072,12.81,47.072,25S37.189,47.072,25,47.072z"/>
	<path fill="#9B1C1F" d="M36.6,39.707V10.293H20.867h-1.78l-5.687,5.26v1.779v22.375H36.6z"/>
	<g>
		<path fill="#C19398" d="M27.492,27.749c0.17,0.324,0.256,0.684,0.256,1.079c0,0.67-0.234,1.247-0.705,1.732
			s-1.155,0.729-2.056,0.729c-1.077,0-1.841-0.36-2.291-1.08c-0.242-0.388-0.384-0.871-0.424-1.452h1.694
			c0.031,0.271,0.097,0.486,0.197,0.644c0.18,0.28,0.476,0.421,0.887,0.421c0.276,0,0.502-0.069,0.677-0.206
			c0.175-0.139,0.262-0.34,0.262-0.606c0-0.307-0.153-0.536-0.461-0.689c-0.308-0.152-0.872-0.421-1.693-0.807
			c-1.432-0.69-2.147-1.491-2.147-2.402c0-0.569,0.166-1.04,0.498-1.412c0.184-0.207,0.453-0.401,0.808-0.586
			c-0.251-0.216-0.436-0.417-0.552-0.605c-0.207-0.328-0.31-0.714-0.311-1.158c0.001-0.857,0.292-1.511,0.875-1.962
			c0.583-0.45,1.237-0.677,1.961-0.677c0.787,0,1.455,0.2,2.006,0.6c0.549,0.399,0.861,1.062,0.938,1.986h-1.777
			c-0.061-0.332-0.148-0.572-0.263-0.721c-0.188-0.251-0.497-0.377-0.927-0.377c-0.263,0-0.488,0.083-0.678,0.249
			c-0.188,0.166-0.282,0.382-0.282,0.646c0,0.237,0.099,0.446,0.297,0.626c0.197,0.18,0.758,0.507,1.68,0.982
			c0.806,0.403,1.354,0.735,1.647,0.996c0.471,0.417,0.705,0.923,0.705,1.52c0,0.562-0.16,1.025-0.484,1.394
			c-0.188,0.22-0.455,0.419-0.801,0.599C27.172,27.309,27.326,27.488,27.492,27.749z M23.676,25.218
			c0.113,0.095,0.27,0.195,0.469,0.303l1.947,1.022c0.232-0.098,0.398-0.244,0.498-0.437c0.062-0.126,0.094-0.26,0.094-0.404
			c0-0.219-0.092-0.414-0.279-0.585c-0.109-0.103-0.299-0.229-0.573-0.377l-1.848-1.002c-0.148,0.062-0.274,0.154-0.377,0.275
			c-0.162,0.175-0.242,0.384-0.242,0.626C23.364,24.841,23.468,25.034,23.676,25.218z"/>
	</g>
	<polygon fill="#C19398" points="19.087,15.553 19.087,10.293 13.4,15.553 	"/>
</g>
</svg>
