<?xml version="1.0" encoding="utf-8"?>
<!-- Generator: Adobe Illustrator 16.0.0, SVG Export Plug-In . SVG Version: 6.00 Build 0)  -->
<!DOCTYPE svg PUBLIC "-//W3C//DTD SVG 1.1//EN" "http://www.w3.org/Graphics/SVG/1.1/DTD/svg11.dtd">
<svg version="1.1" id="Layer_1" xmlns="http://www.w3.org/2000/svg" xmlns:xlink="http://www.w3.org/1999/xlink" x="0px" y="0px"
	 width="50px" height="50px" viewBox="0 0 50 50" enable-background="new 0 0 50 50" xml:space="preserve">
<g>
	<path fill="#515151" d="M25,0.695C11.577,0.695,0.695,11.577,0.695,25S11.577,49.305,25,49.305
		c13.424,0,24.305-10.882,24.305-24.305S38.424,0.695,25,0.695z M25,47.072C12.811,47.072,2.929,37.19,2.929,25
		S12.811,2.928,25,2.928S47.072,12.81,47.072,25S37.189,47.072,25,47.072z"/>
	<path fill="#9B1C1F" d="M25,0.695C11.577,0.695,0.695,11.577,0.695,25S11.577,49.305,25,49.305
		c13.424,0,24.305-10.882,24.305-24.305S38.424,0.695,25,0.695z M25,47.072C12.811,47.072,2.929,37.19,2.929,25
		S12.811,2.928,25,2.928S47.072,12.81,47.072,25S37.189,47.072,25,47.072z"/>
</g>
<g>
	<g>
		<path fill="#9B1C1F" d="M25,0.75C11.607,0.75,0.75,11.607,0.75,25S11.607,49.25,25,49.25c13.394,0,24.25-10.857,24.25-24.25
			S38.394,0.75,25,0.75z M25,47.022c-12.162,0-22.022-9.86-22.022-22.022c0-12.163,9.86-22.022,22.022-22.022
			c12.163,0,22.022,9.86,22.022,22.022C47.022,37.162,37.163,47.022,25,47.022z"/>
	</g>
	<polygon fill="#9B1C1F" points="35.291,25 20.051,13.078 20.051,36.922 	"/>
</g>
</svg>
