<?xml version="1.0" encoding="utf-8"?>
<!-- Generator: Adobe Illustrator 16.0.0, SVG Export Plug-In . SVG Version: 6.00 Build 0)  -->
<!DOCTYPE svg PUBLIC "-//W3C//DTD SVG 1.1//EN" "http://www.w3.org/Graphics/SVG/1.1/DTD/svg11.dtd">
<svg version="1.1" id="Layer_1" xmlns="http://www.w3.org/2000/svg" xmlns:xlink="http://www.w3.org/1999/xlink" x="0px" y="0px"
	 width="50px" height="50px" viewBox="0 0 50 50" enable-background="new 0 0 50 50" xml:space="preserve">
<path fill="#515151" d="M25,0.695C11.577,0.695,0.695,11.577,0.695,25S11.577,49.305,25,49.305
	c13.424,0,24.305-10.882,24.305-24.305S38.424,0.695,25,0.695z M25,47.072C12.811,47.072,2.929,37.19,2.929,25
	S12.811,2.928,25,2.928S47.072,12.81,47.072,25S37.189,47.072,25,47.072z"/>
<path fill="#9B1C1F" d="M25,0.695C11.577,0.695,0.695,11.577,0.695,25S11.577,49.305,25,49.305
	c13.424,0,24.305-10.882,24.305-24.305S38.424,0.695,25,0.695z M25,47.072C12.811,47.072,2.929,37.19,2.929,25
	S12.811,2.928,25,2.928S47.072,12.81,47.072,25S37.189,47.072,25,47.072z"/>
<g>
	<g>
		<path fill="#515151" d="M25,0.75C11.607,0.75,0.75,11.607,0.75,25c0,13.393,10.857,24.25,24.25,24.25
			c13.393,0,24.25-10.857,24.25-24.25C49.25,11.607,38.394,0.75,25,0.75z M25,47.022C12.837,47.022,2.978,37.163,2.978,25
			c0-12.163,9.86-22.022,22.023-22.022c12.162,0,22.022,9.86,22.022,22.022C47.022,37.163,37.162,47.022,25,47.022z"/>
	</g>
	<g>
		<path fill="#9B1C1F" d="M25,0.75C11.607,0.75,0.75,11.607,0.75,25c0,13.393,10.857,24.25,24.25,24.25
			c13.393,0,24.25-10.857,24.25-24.25C49.25,11.607,38.394,0.75,25,0.75z M25,47.022C12.837,47.022,2.978,37.163,2.978,25
			c0-12.163,9.86-22.022,22.023-22.022c12.162,0,22.022,9.86,22.022,22.022C47.022,37.163,37.162,47.022,25,47.022z"/>
	</g>
	<polygon fill="#9B1C1F" points="40.243,20.529 37.993,18.547 37.993,18.55 34.706,15.654 25.588,15.654 25.588,12.976 
		23.427,12.976 23.427,15.654 13.095,15.654 13.095,25.403 23.427,25.403 23.427,38.674 25.588,38.674 25.588,25.403 34.706,25.403 
		37.993,22.507 37.993,22.511 	"/>
</g>
</svg>
