<?xml version="1.0" encoding="utf-8"?>
<!-- Generator: Adobe Illustrator 16.0.0, SVG Export Plug-In . SVG Version: 6.00 Build 0)  -->
<!DOCTYPE svg PUBLIC "-//W3C//DTD SVG 1.1//EN" "http://www.w3.org/Graphics/SVG/1.1/DTD/svg11.dtd">
<svg version="1.1" id="Layer_1" xmlns="http://www.w3.org/2000/svg" xmlns:xlink="http://www.w3.org/1999/xlink" x="0px" y="0px"
	 width="50px" height="50px" viewBox="0 0 50 50" enable-background="new 0 0 50 50" xml:space="preserve">
<g>
	<path fill="#515151" d="M25,0.695C11.577,0.695,0.695,11.577,0.695,25S11.577,49.305,25,49.305
		c13.424,0,24.305-10.882,24.305-24.305S38.424,0.695,25,0.695z M25,47.072C12.811,47.072,2.929,37.19,2.929,25
		S12.811,2.928,25,2.928S47.072,12.81,47.072,25S37.189,47.072,25,47.072z"/>
	<path fill="#9B1C1F" d="M25,0.695C11.577,0.695,0.695,11.577,0.695,25S11.577,49.305,25,49.305
		c13.424,0,24.305-10.882,24.305-24.305S38.424,0.695,25,0.695z M25,47.072C12.811,47.072,2.929,37.19,2.929,25
		S12.811,2.928,25,2.928S47.072,12.81,47.072,25S37.189,47.072,25,47.072z"/>
</g>
<g>
	<g>
		<path fill="#515151" d="M25,0.75C11.607,0.75,0.75,11.607,0.75,25S11.607,49.25,25,49.25c13.394,0,24.25-10.857,24.25-24.25
			S38.394,0.75,25,0.75z M25,47.022c-12.162,0-22.022-9.86-22.022-22.022c0-12.163,9.86-22.022,22.022-22.022
			c12.163,0,22.022,9.86,22.022,22.022C47.022,37.162,37.163,47.022,25,47.022z"/>
	</g>
	<g>
		<path fill="#9B1C1F" d="M25,0.75C11.607,0.75,0.75,11.607,0.75,25S11.607,49.25,25,49.25c13.394,0,24.25-10.857,24.25-24.25
			S38.394,0.75,25,0.75z M25,47.022c-12.162,0-22.022-9.86-22.022-22.022c0-12.163,9.86-22.022,22.022-22.022
			c12.163,0,22.022,9.86,22.022,22.022C47.022,37.162,37.163,47.022,25,47.022z"/>
	</g>
	<g>
		<g>
			<g>
				<circle fill="#9B1C1F" cx="25" cy="23.532" r="6.565"/>
				<path fill="#9B1C1F" d="M25,31.772c-5.901,0-10.686,3.283-10.686,7.334h21.371C35.686,35.056,30.901,31.772,25,31.772z"/>
			</g>
			<g>
				<path fill="#9B1C1F" d="M32.155,22.262c-1.74-1.996-4.299-3.259-7.155-3.259c-2.855,0-5.415,1.264-7.154,3.259v2.464
					c1.739,1.996,4.299,3.259,7.154,3.259c2.856,0,5.415-1.264,7.155-3.259V22.262z"/>
				<g>
					<path fill="#C19398" d="M19.423,22.533v1.921c0.316,0.363,0.67,0.694,1.051,0.991v-3.902
						C20.093,21.839,19.739,22.17,19.423,22.533z"/>
					<path fill="#C19398" d="M21.443,20.906v5.176c0.335,0.185,0.687,0.344,1.051,0.475v-6.126
						C22.13,20.562,21.778,20.721,21.443,20.906z"/>
					<path fill="#C19398" d="M23.464,20.154v6.68c0.343,0.072,0.693,0.121,1.052,0.145V20.01
						C24.157,20.033,23.807,20.082,23.464,20.154z"/>
					<path fill="#C19398" d="M25.485,20.01v6.969c0.357-0.023,0.709-0.072,1.051-0.145v-6.68
						C26.194,20.082,25.843,20.033,25.485,20.01z"/>
					<path fill="#C19398" d="M27.506,20.431v6.126c0.365-0.131,0.716-0.29,1.052-0.475v-5.176
						C28.222,20.721,27.871,20.562,27.506,20.431z"/>
					<path fill="#C19398" d="M29.527,21.543v3.902c0.381-0.296,0.734-0.627,1.051-0.991v-1.921
						C30.262,22.17,29.908,21.839,29.527,21.543z"/>
				</g>
			</g>
		</g>
		<path fill="#9B1C1F" d="M28.973,10.766c0-1.198-0.971-2.169-2.169-2.169c-1.16,0-2.108,0.912-2.166,2.058h-0.003v6.501h0.755
			V15.46c0.104,0.034,0.216,0.052,0.331,0.052c0.601,0,1.086-0.486,1.086-1.086c0-0.091-0.013-0.18-0.033-0.265
			c0.554-0.233,0.941-0.781,0.941-1.419c0-0.003,0-0.006,0-0.01C28.457,12.389,28.973,11.638,28.973,10.766z"/>
	</g>
</g>
</svg>
