<?xml version="1.0" encoding="utf-8"?>
<!-- Generator: Adobe Illustrator 16.0.0, SVG Export Plug-In . SVG Version: 6.00 Build 0)  -->
<!DOCTYPE svg PUBLIC "-//W3C//DTD SVG 1.1//EN" "http://www.w3.org/Graphics/SVG/1.1/DTD/svg11.dtd">
<svg version="1.1" id="Layer_1" xmlns="http://www.w3.org/2000/svg" xmlns:xlink="http://www.w3.org/1999/xlink" x="0px" y="0px"
	 width="50px" height="50px" viewBox="0 0 50 50" enable-background="new 0 0 50 50" xml:space="preserve">
<g>
	<path fill="#515151" d="M25,0.695C11.577,0.695,0.695,11.577,0.695,25S11.577,49.305,25,49.305
		c13.424,0,24.305-10.882,24.305-24.305S38.424,0.695,25,0.695z M25,47.072C12.811,47.072,2.929,37.19,2.929,25
		S12.811,2.928,25,2.928S47.072,12.81,47.072,25S37.189,47.072,25,47.072z"/>
	<path fill="#9B1C1F" d="M25,0.695C11.577,0.695,0.695,11.577,0.695,25S11.577,49.305,25,49.305
		c13.424,0,24.305-10.882,24.305-24.305S38.424,0.695,25,0.695z M25,47.072C12.811,47.072,2.929,37.19,2.929,25
		S12.811,2.928,25,2.928S47.072,12.81,47.072,25S37.189,47.072,25,47.072z"/>
</g>
<g>
	<path fill="#9B1C1F" d="M25,0.75C11.607,0.75,0.75,11.607,0.75,25S11.607,49.25,25,49.25c13.394,0,24.25-10.857,24.25-24.25
		S38.394,0.75,25,0.75z M25,47.022c-12.162,0-22.022-9.86-22.022-22.022c0-12.163,9.86-22.022,22.022-22.022
		c12.163,0,22.022,9.86,22.022,22.022C47.022,37.162,37.163,47.022,25,47.022z"/>
	<path fill="#9B1C1F" d="M34.04,28.797c-0.358,1.166-0.885,2.135-1.582,2.906l2.336,2.198l-2.217,2.312l-2.442-2.317
		c-0.745,0.452-1.391,0.771-1.933,0.955c-0.912,0.306-2.003,0.458-3.273,0.458c-2.651,0-4.842-0.791-6.573-2.373
		c-2.099-1.904-3.148-4.7-3.148-8.389c0-3.716,1.076-6.526,3.229-8.43c1.757-1.555,3.941-2.332,6.553-2.332
		c2.631,0,4.838,0.823,6.623,2.469c2.061,1.904,3.091,4.567,3.091,7.989C34.702,26.056,34.481,27.573,34.04,28.797z M26.33,31.528
		c0.248-0.063,0.565-0.179,0.952-0.346l-2.059-1.958l2.184-2.279l2.066,1.946c0.322-0.661,0.547-1.241,0.676-1.737
		c0.202-0.745,0.304-1.614,0.304-2.607c0-2.282-0.467-4.045-1.4-5.29c-0.934-1.247-2.298-1.87-4.091-1.87
		c-1.683,0-3.026,0.598-4.028,1.793c-1.003,1.196-1.504,2.985-1.504,5.367c0,2.787,0.717,4.783,2.153,5.988
		c0.929,0.782,2.042,1.173,3.34,1.173C25.41,31.708,25.879,31.648,26.33,31.528z"/>
</g>
</svg>
