<?xml version="1.0" encoding="utf-8"?>
<!-- Generator: Adobe Illustrator 16.0.3, SVG Export Plug-In . SVG Version: 6.00 Build 0)  -->
<!DOCTYPE svg PUBLIC "-//W3C//DTD SVG 1.1//EN" "http://www.w3.org/Graphics/SVG/1.1/DTD/svg11.dtd">
<svg version="1.1" id="Ebene_1" xmlns="http://www.w3.org/2000/svg" xmlns:xlink="http://www.w3.org/1999/xlink" x="0px" y="0px"
	 width="151.854px" height="48.625px" viewBox="0 0 151.854 48.625" enable-background="new 0 0 151.854 48.625"
	 xml:space="preserve">
<path fill="#676469" d="M13.615,28.65l19.951,0.621c0.228,1.471,0.555,2.398,0.919,2.398c0.687,0,1.244-3.294,1.244-7.36
	c0-4.062-0.558-7.354-1.244-7.354c-0.364,0-0.69,0.925-0.919,2.393l-19.951,0.625c-1.109-3.716-3.602-6.308-6.499-6.308
	C3.187,13.666,0,18.432,0,24.31c0,5.882,3.187,10.649,7.116,10.649C10.013,34.959,12.504,32.367,13.615,28.65"/>
<path fill="#4A484A" d="M13.615,28.65l19.951,0.621c0.228,1.471,0.555,2.398,0.919,2.398c0.686,0,1.243-3.293,1.244-7.357H0
	c0.001,5.88,3.188,10.646,7.116,10.646C10.013,34.959,12.504,32.367,13.615,28.65"/>
<path fill="#C1BFC2" d="M151.854,21.084c0,0,2.313,2.445,2.313,3.226c0,0.831-2.313,3.226-2.313,3.226l-17.331,5.454H40.077V15.635
	h94.542L151.854,21.084z"/>
<path fill="#8F8E90" d="M151.854,27.536c0,0,2.307-2.389,2.313-3.224H40.077v8.678h94.446L151.854,27.536z"/>
<path fill="#545459" d="M34.512,1.344c0,0.045,0.005,0.088,0.016,0.132v45.674c-0.011,0.042-0.016,0.088-0.016,0.132
	c0,0.742,1.535,1.344,3.436,1.344c1.898,0,3.438-0.602,3.438-1.344V1.344c0-0.741-1.54-1.344-3.438-1.344
	C36.047,0,34.512,0.603,34.512,1.344"/>
</svg>
